<?xml version="1.0" encoding="UTF-8" standalone="no"?>
<svg xmlns="http://www.w3.org/2000/svg" version="1.2" baseProfile="tiny" viewBox="0 0 162 199">
<g stroke-width="2.00" fill="none" stroke-linecap="butt">
<path stroke="#5e6f77" vector-effect="non-scaling-stroke" d="
  M 35.05 59.72
  Q 28.55 57.34 20.62 56.55
  C 18.13 56.30 15.84 55.09 13.38 54.39
  Q 12.68 54.19 12.86 54.90
  Q 16.89 70.72 25.19 84.75
  A 1.00 0.99 41.6 0 0 26.96 84.65
  C 28.07 82.16 29.04 79.19 30.22 76.97
  C 41.54 55.61 65.95 53.05 85.14 65.15
  C 97.27 72.80 100.96 87.24 101.88 100.64
  C 102.75 113.27 103.27 120.83 102.49 131.77
  Q 102.45 132.30 102.97 132.43
  C 117.55 136.00 116.94 153.94 101.94 156.47
  Q 101.40 156.56 101.29 157.09
  Q 99.35 166.72 94.43 175.21
  A 0.69 0.68 16.1 0 0 95.00 176.24
  L 108.07 176.74
  Q 108.76 176.76 108.51 176.12
  L 104.34 165.48
  A 0.91 0.91 0.0 0 1 105.23 164.24
  Q 114.58 164.60 123.70 162.31
  A 0.59 0.59 0.0 0 0 123.99 161.34
  L 115.74 152.18
  A 1.48 1.48 0.0 0 1 116.05 149.93
  C 124.43 144.73 131.41 138.37 140.81 135.63
  A 0.91 0.90 -37.9 0 0 141.02 133.98
  C 133.68 129.67 126.12 125.86 119.21 121.15
  A 0.90 0.90 0.0 0 1 119.11 119.75
  C 121.28 117.76 124.45 116.75 126.23 115.72
  C 133.99 111.26 142.03 107.23 149.26 101.92
  A 0.89 0.89 0.0 0 0 149.07 100.38
  C 146.95 99.50 144.52 99.15 142.48 98.22
  Q 131.01 92.97 119.42 87.18
  A 1.99 1.98 16.1 0 1 118.33 85.22
  Q 118.67 81.47 120.79 77.61
  C 125.25 69.50 129.77 60.38 136.33 53.76
  A 0.52 0.52 0.0 0 0 135.95 52.87
  C 123.44 53.23 111.41 55.85 98.95 56.88
  A 0.87 0.87 0.0 0 1 98.01 56.09
  C 97.43 50.09 97.34 44.85 97.92 38.31
  Q 99.15 24.53 98.29 11.37
  A 0.70 0.70 0.0 0 0 97.06 10.96
  C 93.33 15.34 88.33 18.93 84.90 22.61
  Q 81.27 26.50 77.69 30.43
  C 73.04 35.53 67.11 40.69 62.24 46.25
  A 0.97 0.97 0.0 0 1 60.81 46.27
  C 53.89 38.89 49.49 30.95 44.18 22.32
  Q 43.94 21.93 43.80 21.49
  L 43.06 19.08
  Q 42.69 17.91 42.15 19.01
  Q 32.85 37.78 36.59 58.43
  Q 36.95 60.42 35.05 59.72"
/>
<path stroke="#4d353b" vector-effect="non-scaling-stroke" d="
  M 83.46 119.25
  C 81.79 121.33 80.52 123.68 78.40 125.21
  C 67.81 132.90 53.93 129.59 47.82 118.04"
/>
<path stroke="#6f665e" vector-effect="non-scaling-stroke" d="
  M 47.82 118.04
  L 47.84 105.16
  Q 47.84 104.23 47.07 104.75
  L 46.46 105.15
  Q 45.89 105.52 46.07 106.18
  Q 47.97 113.30 44.46 119.75"
/>
<path stroke="#4d353b" vector-effect="non-scaling-stroke" d="
  M 44.46 119.75
  C 39.00 126.38 34.46 128.02 25.89 127.03
  Q 25.40 126.97 25.29 127.45
  Q 25.13 128.23 25.29 129.00"
/>
<path stroke="#6f665e" vector-effect="non-scaling-stroke" d="
  M 25.29 129.00
  L 25.27 132.30
  A 1.12 1.12 0.0 0 0 26.36 133.43
  L 33.73 133.65
  Q 34.29 133.67 34.26 134.23
  L 34.22 135.17
  Q 34.18 135.83 33.52 135.81
  L 25.69 135.60
  A 0.75 0.75 0.0 0 0 24.94 136.53
  Q 26.68 143.69 26.84 151.04
  Q 26.85 151.67 27.38 151.32
  Q 28.78 150.42 30.28 150.95
  A 0.78 0.78 0.0 0 1 30.33 152.41
  Q 25.74 154.37 23.92 158.55
  C 20.96 165.38 29.29 166.91 33.71 167.40
  Q 34.33 167.47 34.39 168.10
  Q 34.45 168.93 33.67 169.43
  A 1.07 1.06 -30.3 0 0 33.30 170.82
  C 38.06 179.87 42.70 188.88 53.56 191.02
  C 61.02 192.49 69.11 192.38 76.24 189.13
  C 88.99 183.32 96.75 170.57 99.41 157.46
  Q 99.54 156.79 98.87 156.66
  L 97.46 156.38
  Q 96.87 156.27 97.00 155.68
  L 97.15 155.01
  Q 97.29 154.38 97.93 154.50
  C 106.71 156.12 116.49 147.58 109.66 138.62
  Q 105.97 133.78 99.16 133.69
  Q 98.50 133.69 98.50 133.03
  L 98.50 132.02
  Q 98.50 131.24 99.23 131.51
  L 99.92 131.77
  Q 100.56 132.01 100.66 131.32
  C 102.07 121.39 100.73 110.57 100.07 100.57
  C 98.46 76.18 86.98 61.23 61.77 59.81
  C 46.14 58.94 33.68 69.96 29.10 84.51
  Q 28.92 85.08 29.50 85.19
  C 36.40 86.46 38.88 90.43 44.53 93.06
  C 45.95 93.72 47.58 93.28 48.69 92.43
  C 56.60 86.40 64.16 81.55 74.25 83.47
  C 82.34 85.01 81.39 94.05 73.55 93.77
  A 0.22 0.22 0.0 0 0 73.46 94.19
  C 83.57 98.40 86.65 109.00 83.46 119.25"
/>
<path stroke="#bc9b99" vector-effect="non-scaling-stroke" d="
  M 25.29 129.00
  Q 31.84 133.15 38.45 129.00"
/>
<path stroke="#6f665e" vector-effect="non-scaling-stroke" d="
  M 38.45 129.00
  C 36.59 133.98 35.25 143.63 40.38 147.11
  A 1.92 1.92 0.0 0 0 42.76 146.94
  Q 47.91 142.23 51.11 136.09
  Q 51.36 135.60 50.97 135.21
  L 50.30 134.54
  Q 49.72 133.95 49.35 134.69
  Q 46.53 140.37 41.93 144.75
  Q 41.52 145.14 41.04 144.83
  Q 39.72 143.97 39.50 142.25
  Q 38.26 132.92 42.78 124.58"
/>
<path stroke="#bc9b99" vector-effect="non-scaling-stroke" d="
  M 42.78 124.58
  Q 44.17 122.48 44.46 119.75"
/>
<path stroke="#bc9b99" vector-effect="non-scaling-stroke" d="
  M 47.82 118.04
  Q 48.39 129.50 58.39 132.77
  C 66.98 135.58 86.05 132.81 83.46 119.25"
/>
<path stroke="#4d353b" vector-effect="non-scaling-stroke" d="
  M 42.78 124.58
  Q 39.03 125.68 38.45 129.00"
/>
<path stroke="#5e6f77" vector-effect="non-scaling-stroke" d="
  M 45.30 95.22
  C 37.27 92.27 34.15 85.56 24.45 86.84
  Q 23.96 86.91 23.60 87.25
  C 20.97 89.75 22.24 92.99 25.77 93.43
  C 33.20 94.35 38.78 99.96 45.15 103.29
  A 2.52 2.50 -49.3 0 0 47.81 103.08
  C 56.20 96.94 64.77 92.09 75.52 91.92
  Q 76.01 91.92 76.40 91.61
  C 78.99 89.58 78.48 86.25 75.21 85.53
  Q 64.95 83.27 56.55 89.15
  C 54.59 90.53 47.35 95.98 45.30 95.22"
/>
<path stroke="#5e6f77" vector-effect="non-scaling-stroke" d="
  M 16.95 101.50
  Q 19.04 97.62 22.64 95.06
  Q 23.22 94.65 22.65 94.24
  Q 20.66 92.78 20.32 90.34
  Q 20.22 89.61 19.54 89.90
  Q 14.19 92.19 8.37 92.55
  A 0.29 0.29 0.0 0 0 8.18 93.05
  L 16.67 101.54
  A 0.18 0.17 36.4 0 0 16.95 101.50"
/>
<path stroke="#808080" vector-effect="non-scaling-stroke" d="
  M 76.38 124.32
  C 87.72 116.63 83.47 97.27 69.10 94.74
  C 63.83 93.82 56.25 98.98 52.17 101.97
  C 47.52 105.39 48.77 117.24 52.18 121.18
  C 58.35 128.31 68.67 129.54 76.38 124.32"
/>
<path stroke="#808080" vector-effect="non-scaling-stroke" d="
  M 34.45 124.92
  C 43.34 123.18 46.82 112.28 43.76 104.64
  Q 43.57 104.18 43.15 103.92
  Q 38.40 101.04 33.82 97.95
  C 30.40 95.63 26.84 93.92 23.50 96.51
  C 11.86 105.51 14.90 128.76 34.45 124.92"
/>
<path stroke="#5e6f77" vector-effect="non-scaling-stroke" d="
  M 18.16 132.63
  A 0.49 0.49 0.0 0 0 18.11 133.37
  Q 20.10 135.33 22.79 136.03
  Q 23.50 136.21 23.50 135.48
  L 23.50 127.77
  Q 23.50 126.98 22.76 127.24
  L 22.04 127.49
  Q 21.57 127.65 21.40 128.12
  Q 20.43 130.86 18.16 132.63"
/>
<path stroke="#6f665e" vector-effect="non-scaling-stroke" d="
  M 62.94 137.81
  Q 73.32 139.67 82.43 133.28
  C 83.44 132.58 86.49 128.47 83.87 128.30
  Q 83.38 128.27 83.14 128.71
  C 79.85 134.75 69.06 136.43 63.12 135.63
  Q 62.65 135.57 62.44 135.99
  Q 61.66 137.58 62.94 137.81"
/>
<path stroke="#6f665e" vector-effect="non-scaling-stroke" d="
  M 37.00 156.96
  C 35.29 157.17 26.24 157.76 26.79 160.17
  Q 26.90 160.66 27.40 160.58
  L 37.54 159.04"
/>
<path stroke="#bc9b99" vector-effect="non-scaling-stroke" d="
  M 37.54 159.04
  Q 34.98 167.98 40.53 174.92
  Q 40.89 175.37 41.32 175.00
  Q 41.78 174.61 41.47 174.04
  C 38.27 168.32 40.59 164.48 41.25 158.79"
/>
<path stroke="#6f665e" vector-effect="non-scaling-stroke" d="
  M 41.25 158.79
  C 52.77 158.09 65.69 158.45 76.94 162.16
  Q 77.73 162.42 77.54 161.61
  L 77.29 160.51
  Q 77.18 160.03 76.70 159.88
  C 64.78 156.21 52.61 156.18 40.25 156.71"
/>
<path stroke="#bc9b99" vector-effect="non-scaling-stroke" d="
  M 40.25 156.71
  C 40.80 154.25 40.00 153.55 37.78 152.57
  C 34.75 151.23 35.87 149.29 34.85 147.14
  Q 34.02 145.41 33.65 147.30
  Q 32.42 153.64 37.00 156.96"
/>
<path stroke="#4d353b" vector-effect="non-scaling-stroke" d="
  M 40.25 156.71
  L 37.00 156.96"
/>
<path stroke="#4d353b" vector-effect="non-scaling-stroke" d="
  M 41.25 158.79
  L 37.54 159.04"
/>
<path stroke="#6f665e" vector-effect="non-scaling-stroke" d="
  M 84.76 163.77
  C 87.20 160.07 77.58 150.57 76.10 154.02
  Q 75.86 154.58 76.41 154.84
  Q 81.09 157.09 83.00 161.83
  Q 83.19 162.29 82.92 162.72
  C 81.10 165.70 79.19 166.40 75.53 166.57
  C 74.45 166.61 69.31 166.29 70.37 168.50
  Q 70.60 169.00 71.16 168.99
  C 76.96 168.87 81.22 169.14 84.76 163.77"
/>
<path stroke="#808080" vector-effect="non-scaling-stroke" d="
  M 73.22 115.47
  Q 74.40 114.27 76.02 114.11
  Q 77.11 114.01 76.24 113.35
  Q 74.99 112.40 75.02 110.77
  Q 75.04 109.98 74.33 110.33
  L 71.03 111.99
  Q 70.57 112.22 70.81 112.67
  L 72.23 115.33
  Q 72.63 116.08 73.22 115.47"
/>
<path stroke="#808080" vector-effect="non-scaling-stroke" d="
  M 36.51 110.86
  Q 37.45 110.11 36.70 109.28
  A 0.82 0.81 48.8 0 0 35.57 109.20
  Q 34.26 110.33 32.47 109.95
  A 0.51 0.51 0.0 0 0 32.00 110.80
  Q 33.08 111.95 33.00 113.52
  Q 32.95 114.45 33.72 113.92
  Q 35.01 113.02 36.59 113.25
  Q 37.87 113.44 37.02 112.46
  L 36.43 111.78
  Q 36.00 111.28 36.51 110.86"
/>
</g>
<path data-color="skin" d="
  M 25.29 129.00
  Q 31.84 133.15 38.45 129.00
  C 36.59 133.98 35.25 143.63 40.38 147.11
  A 1.92 1.92 0.0 0 0 42.76 146.94
  Q 47.91 142.23 51.11 136.09
  Q 51.36 135.60 50.97 135.21
  L 50.30 134.54
  Q 49.72 133.95 49.35 134.69
  Q 46.53 140.37 41.93 144.75
  Q 41.52 145.14 41.04 144.83
  Q 39.72 143.97 39.50 142.25
  Q 38.26 132.92 42.78 124.58
  Q 44.17 122.48 44.46 119.75
  Q 47.97 113.30 46.07 106.18
  Q 45.89 105.52 46.46 105.15
  L 47.07 104.75
  Q 47.84 104.23 47.84 105.16
  L 47.82 118.04
  Q 48.39 129.50 58.39 132.77
  C 66.98 135.58 86.05 132.81 83.46 119.25
  C 86.65 109.00 83.57 98.40 73.46 94.19
  A 0.22 0.22 0.0 0 1 73.55 93.77
  C 81.39 94.05 82.34 85.01 74.25 83.47
  C 64.16 81.55 56.60 86.40 48.69 92.43
  C 47.58 93.28 45.95 93.72 44.53 93.06
  C 38.88 90.43 36.40 86.46 29.50 85.19
  Q 28.92 85.08 29.10 84.51
  C 33.68 69.96 46.14 58.94 61.77 59.81
  C 86.98 61.23 98.46 76.18 100.07 100.57
  C 100.73 110.57 102.07 121.39 100.66 131.32
  Q 100.56 132.01 99.92 131.77
  L 99.23 131.51
  Q 98.50 131.24 98.50 132.02
  L 98.50 133.03
  Q 98.50 133.69 99.16 133.69
  Q 105.97 133.78 109.66 138.62
  C 116.49 147.58 106.71 156.12 97.93 154.50
  Q 97.29 154.38 97.15 155.01
  L 97.00 155.68
  Q 96.87 156.27 97.46 156.38
  L 98.87 156.66
  Q 99.54 156.79 99.41 157.46
  C 96.75 170.57 88.99 183.32 76.24 189.13
  C 69.11 192.38 61.02 192.49 53.56 191.02
  C 42.70 188.88 38.06 179.87 33.30 170.82
  A 1.07 1.06 -30.3 0 1 33.67 169.43
  Q 34.45 168.93 34.39 168.10
  Q 34.33 167.47 33.71 167.40
  C 29.29 166.91 20.96 165.38 23.92 158.55
  Q 25.74 154.37 30.33 152.41
  A 0.78 0.78 0.0 0 0 30.28 150.95
  Q 28.78 150.42 27.38 151.32
  Q 26.85 151.67 26.84 151.04
  Q 26.68 143.69 24.94 136.53
  A 0.75 0.75 0.0 0 1 25.69 135.60
  L 33.52 135.81
  Q 34.18 135.83 34.22 135.17
  L 34.26 134.23
  Q 34.29 133.67 33.73 133.65
  L 26.36 133.43
  A 1.12 1.12 0.0 0 1 25.27 132.30
  L 25.29 129.00
  Z
  M 62.94 137.81
  Q 73.32 139.67 82.43 133.28
  C 83.44 132.58 86.49 128.47 83.87 128.30
  Q 83.38 128.27 83.14 128.71
  C 79.85 134.75 69.06 136.43 63.12 135.63
  Q 62.65 135.57 62.44 135.99
  Q 61.66 137.58 62.94 137.81
  Z
  M 37.00 156.96
  C 35.29 157.17 26.24 157.76 26.79 160.17
  Q 26.90 160.66 27.40 160.58
  L 37.54 159.04
  Q 34.98 167.98 40.53 174.92
  Q 40.89 175.37 41.32 175.00
  Q 41.78 174.61 41.47 174.04
  C 38.27 168.32 40.59 164.48 41.25 158.79
  C 52.77 158.09 65.69 158.45 76.94 162.16
  Q 77.73 162.42 77.54 161.61
  L 77.29 160.51
  Q 77.18 160.03 76.70 159.88
  C 64.78 156.21 52.61 156.18 40.25 156.71
  C 40.80 154.25 40.00 153.55 37.78 152.57
  C 34.75 151.23 35.87 149.29 34.85 147.14
  Q 34.02 145.41 33.65 147.30
  Q 32.42 153.64 37.00 156.96
  Z
  M 84.76 163.77
  C 87.20 160.07 77.58 150.57 76.10 154.02
  Q 75.86 154.58 76.41 154.84
  Q 81.09 157.09 83.00 161.83
  Q 83.19 162.29 82.92 162.72
  C 81.10 165.70 79.19 166.40 75.53 166.57
  C 74.45 166.61 69.31 166.29 70.37 168.50
  Q 70.60 169.00 71.16 168.99
  C 76.96 168.87 81.22 169.14 84.76 163.77
  Z"
/>
<g   data-color="skin">
<path d="
  M 121.06 152.39
  C 123.39 155.70 126.22 157.63 128.63 160.26
  Q 129.00 160.67 129.00 161.23
  L 129.00 163.52
  Q 129.00 164.08 128.58 164.45
  Q 126.32 166.46 123.28 165.99
  Q 122.72 165.90 122.24 166.18
  Q 120.08 167.43 117.54 166.94
  Q 117.04 166.85 116.60 167.11
  Q 114.24 168.54 111.28 167.92
  A 1.30 1.30 0.0 0 0 109.84 169.76
  C 111.17 172.50 115.35 178.25 111.36 180.38
  Q 110.34 180.93 108.55 180.62
  Q 101.72 179.44 94.74 180.17
  Q 94.25 180.22 93.88 180.56
  C 90.64 183.64 88.08 186.78 84.14 189.10
  Q 81.18 190.85 78.30 192.74
  Q 77.91 193.00 77.44 193.00
  L 77.03 193.00
  Q 76.57 193.00 76.23 193.31
  Q 75.03 194.38 73.36 193.97
  Q 72.89 193.86 72.48 194.12
  L 71.58 194.71
  Q 71.16 194.98 70.66 194.99
  C 65.60 195.06 60.62 194.91 55.57 195.26
  Q 53.27 195.41 50.74 194.70
  C 40.49 191.83 35.51 183.87 30.64 174.91
  C 29.90 173.54 30.05 171.18 27.67 170.53
  C 18.37 168.01 16.57 160.06 22.66 152.92
  Q 23.00 152.52 23.00 151.99
  L 23.00 147.27
  Q 23.00 146.78 22.75 146.36
  Q 21.67 144.56 22.03 142.46
  Q 22.12 141.98 21.89 141.55
  L 20.86 139.56
  Q 20.64 139.13 20.19 138.96
  Q 17.04 137.74 14.45 135.70
  C 12.07 133.82 12.37 131.13 15.20 129.98
  Q 18.58 128.61 18.16 124.91
  Q 18.10 124.41 17.72 124.09
  Q 14.42 121.37 13.96 117.10
  Q 13.91 116.62 13.65 116.21
  C 12.24 114.00 13.04 106.64 13.16 104.19
  Q 13.18 103.73 12.91 103.37
  Q 11.65 101.66 9.81 100.70
  Q 9.31 100.44 9.10 99.92
  Q 8.46 98.31 6.81 97.72
  Q 6.30 97.54 6.11 97.04
  C 5.16 94.52 2.00 93.88 3.33 90.84
  C 4.70 87.68 10.20 87.75 13.03 88.08
  Q 13.62 88.14 13.97 87.66
  Q 14.67 86.69 16.00 87.03
  Q 16.59 87.18 16.96 86.68
  Q 17.64 85.73 18.89 86.00
  Q 19.40 86.11 19.78 85.77
  Q 20.87 84.82 20.27 83.76
  Q 14.94 74.17 13.07 67.73
  Q 11.41 62.02 8.50 54.94
  Q 6.85 50.93 10.84 49.33
  Q 11.26 49.17 11.65 49.38
  C 15.13 51.28 19.06 53.21 23.18 53.03
  Q 23.68 53.01 24.12 53.25
  Q 26.16 54.38 28.54 53.97
  Q 28.93 53.90 29.27 54.10
  L 31.01 55.13
  Q 32.00 55.72 32.00 54.57
  L 32.00 38.29
  Q 32.00 37.79 32.25 37.35
  Q 33.32 35.45 32.95 33.24
  Q 32.85 32.64 33.34 32.28
  Q 34.29 31.59 33.99 30.31
  Q 33.85 29.73 34.30 29.34
  Q 35.34 28.44 34.99 26.95
  Q 34.88 26.48 35.11 26.06
  C 37.29 22.15 37.94 17.56 39.88 13.75
  Q 40.10 13.30 40.57 13.14
  C 45.65 11.31 46.90 16.26 47.06 19.90
  Q 47.09 20.40 47.39 20.80
  C 52.07 26.97 54.75 34.26 61.00 40.77
  Q 61.36 41.16 61.76 40.79
  Q 64.72 38.06 67.45 35.18
  C 68.92 33.64 71.51 32.62 72.79 30.51
  C 75.05 26.83 78.93 23.84 81.82 20.58
  C 84.36 17.73 86.84 15.64 89.67 13.41
  C 92.43 11.23 93.01 9.04 96.24 6.93
  Q 99.95 4.51 102.50 8.25
  Q 103.27 9.38 102.39 10.03
  Q 101.99 10.33 102.00 10.83
  C 102.01 14.46 101.73 17.40 102.66 21.15
  C 103.35 23.94 102.02 26.56 102.05 29.05
  C 102.15 37.49 100.41 43.89 101.13 51.44
  Q 101.18 51.98 101.62 52.30
  Q 103.73 53.85 105.86 52.24
  Q 106.21 51.98 106.64 51.99
  Q 108.30 52.02 109.93 52.00
  C 112.26 51.98 113.83 50.68 116.52 51.03
  Q 117.03 51.09 117.51 50.92
  Q 120.48 49.85 123.58 49.88
  C 129.19 49.94 134.45 48.80 140.11 49.02
  Q 140.70 49.04 140.97 49.57
  L 142.07 51.74
  Q 142.34 52.28 141.81 52.58
  Q 141.02 53.04 140.99 53.96
  Q 140.98 54.55 140.54 54.94
  C 132.61 61.93 127.05 73.60 122.58 82.73
  A 1.95 1.95 0.0 0 0 123.57 85.38
  C 131.78 88.84 140.16 93.52 148.94 96.59
  C 151.32 97.42 153.79 96.88 154.78 100.24
  Q 154.93 100.75 154.65 101.20
  C 152.34 105.04 147.22 108.18 143.46 110.28
  C 136.20 114.32 132.28 116.74 126.43 119.89
  A 1.12 1.12 0.0 0 0 126.51 121.90
  Q 134.26 125.33 141.70 130.28
  Q 145.10 132.54 146.61 134.32
  Q 146.98 134.76 146.86 135.32
  C 146.00 139.34 143.09 138.56 140.48 139.54
  Q 131.28 142.99 123.82 149.51
  Q 123.42 149.86 122.90 150.00
  Q 121.64 150.35 121.01 151.52
  Q 120.76 151.97 121.06 152.39
  Z
  M 35.05 59.72
  Q 28.55 57.34 20.62 56.55
  C 18.13 56.30 15.84 55.09 13.38 54.39
  Q 12.68 54.19 12.86 54.90
  Q 16.89 70.72 25.19 84.75
  A 1.00 0.99 41.6 0 0 26.96 84.65
  C 28.07 82.16 29.04 79.19 30.22 76.97
  C 41.54 55.61 65.95 53.05 85.14 65.15
  C 97.27 72.80 100.96 87.24 101.88 100.64
  C 102.75 113.27 103.27 120.83 102.49 131.77
  Q 102.45 132.30 102.97 132.43
  C 117.55 136.00 116.94 153.94 101.94 156.47
  Q 101.40 156.56 101.29 157.09
  Q 99.35 166.72 94.43 175.21
  A 0.69 0.68 16.1 0 0 95.00 176.24
  L 108.07 176.74
  Q 108.76 176.76 108.51 176.12
  L 104.34 165.48
  A 0.91 0.91 0.0 0 1 105.23 164.24
  Q 114.58 164.60 123.70 162.31
  A 0.59 0.59 0.0 0 0 123.99 161.34
  L 115.74 152.18
  A 1.48 1.48 0.0 0 1 116.05 149.93
  C 124.43 144.73 131.41 138.37 140.81 135.63
  A 0.91 0.90 -37.9 0 0 141.02 133.98
  C 133.68 129.67 126.12 125.86 119.21 121.15
  A 0.90 0.90 0.0 0 1 119.11 119.75
  C 121.28 117.76 124.45 116.75 126.23 115.72
  C 133.99 111.26 142.03 107.23 149.26 101.92
  A 0.89 0.89 0.0 0 0 149.07 100.38
  C 146.95 99.50 144.52 99.15 142.48 98.22
  Q 131.01 92.97 119.42 87.18
  A 1.99 1.98 16.1 0 1 118.33 85.22
  Q 118.67 81.47 120.79 77.61
  C 125.25 69.50 129.77 60.38 136.33 53.76
  A 0.52 0.52 0.0 0 0 135.95 52.87
  C 123.44 53.23 111.41 55.85 98.95 56.88
  A 0.87 0.87 0.0 0 1 98.01 56.09
  C 97.43 50.09 97.34 44.85 97.92 38.31
  Q 99.15 24.53 98.29 11.37
  A 0.70 0.70 0.0 0 0 97.06 10.96
  C 93.33 15.34 88.33 18.93 84.90 22.61
  Q 81.27 26.50 77.69 30.43
  C 73.04 35.53 67.11 40.69 62.24 46.25
  A 0.97 0.97 0.0 0 1 60.81 46.27
  C 53.89 38.89 49.49 30.95 44.18 22.32
  Q 43.94 21.93 43.80 21.49
  L 43.06 19.08
  Q 42.69 17.91 42.15 19.01
  Q 32.85 37.78 36.59 58.43
  Q 36.95 60.42 35.05 59.72
  Z
  M 83.46 119.25
  C 81.79 121.33 80.52 123.68 78.40 125.21
  C 67.81 132.90 53.93 129.59 47.82 118.04
  L 47.84 105.16
  Q 47.84 104.23 47.07 104.75
  L 46.46 105.15
  Q 45.89 105.52 46.07 106.18
  Q 47.97 113.30 44.46 119.75
  C 39.00 126.38 34.46 128.02 25.89 127.03
  Q 25.40 126.97 25.29 127.45
  Q 25.13 128.23 25.29 129.00
  L 25.27 132.30
  A 1.12 1.12 0.0 0 0 26.36 133.43
  L 33.73 133.65
  Q 34.29 133.67 34.26 134.23
  L 34.22 135.17
  Q 34.18 135.83 33.52 135.81
  L 25.69 135.60
  A 0.75 0.75 0.0 0 0 24.94 136.53
  Q 26.68 143.69 26.84 151.04
  Q 26.85 151.67 27.38 151.32
  Q 28.78 150.42 30.28 150.95
  A 0.78 0.78 0.0 0 1 30.33 152.41
  Q 25.74 154.37 23.92 158.55
  C 20.96 165.38 29.29 166.91 33.71 167.40
  Q 34.33 167.47 34.39 168.10
  Q 34.45 168.93 33.67 169.43
  A 1.07 1.06 -30.3 0 0 33.30 170.82
  C 38.06 179.87 42.70 188.88 53.56 191.02
  C 61.02 192.49 69.11 192.38 76.24 189.13
  C 88.99 183.32 96.75 170.57 99.41 157.46
  Q 99.54 156.79 98.87 156.66
  L 97.46 156.38
  Q 96.87 156.27 97.00 155.68
  L 97.15 155.01
  Q 97.29 154.38 97.93 154.50
  C 106.71 156.12 116.49 147.58 109.66 138.62
  Q 105.97 133.78 99.16 133.69
  Q 98.50 133.69 98.50 133.03
  L 98.50 132.02
  Q 98.50 131.24 99.23 131.51
  L 99.92 131.77
  Q 100.56 132.01 100.66 131.32
  C 102.07 121.39 100.73 110.57 100.07 100.57
  C 98.46 76.18 86.98 61.23 61.77 59.81
  C 46.14 58.94 33.68 69.96 29.10 84.51
  Q 28.92 85.08 29.50 85.19
  C 36.40 86.46 38.88 90.43 44.53 93.06
  C 45.95 93.72 47.58 93.28 48.69 92.43
  C 56.60 86.40 64.16 81.55 74.25 83.47
  C 82.34 85.01 81.39 94.05 73.55 93.77
  A 0.22 0.22 0.0 0 0 73.46 94.19
  C 83.57 98.40 86.65 109.00 83.46 119.25
  Z
  M 45.30 95.22
  C 37.27 92.27 34.15 85.56 24.45 86.84
  Q 23.96 86.91 23.60 87.25
  C 20.97 89.75 22.24 92.99 25.77 93.43
  C 33.20 94.35 38.78 99.96 45.15 103.29
  A 2.52 2.50 -49.3 0 0 47.81 103.08
  C 56.20 96.94 64.77 92.09 75.52 91.92
  Q 76.01 91.92 76.40 91.61
  C 78.99 89.58 78.48 86.25 75.21 85.53
  Q 64.95 83.27 56.55 89.15
  C 54.59 90.53 47.35 95.98 45.30 95.22
  Z
  M 16.95 101.50
  Q 19.04 97.62 22.64 95.06
  Q 23.22 94.65 22.65 94.24
  Q 20.66 92.78 20.32 90.34
  Q 20.22 89.61 19.54 89.90
  Q 14.19 92.19 8.37 92.55
  A 0.29 0.29 0.0 0 0 8.18 93.05
  L 16.67 101.54
  A 0.18 0.17 36.4 0 0 16.95 101.50
  Z
  M 76.38 124.32
  C 87.72 116.63 83.47 97.27 69.10 94.74
  C 63.83 93.82 56.25 98.98 52.17 101.97
  C 47.52 105.39 48.77 117.24 52.18 121.18
  C 58.35 128.31 68.67 129.54 76.38 124.32
  Z
  M 34.45 124.92
  C 43.34 123.18 46.82 112.28 43.76 104.64
  Q 43.57 104.18 43.15 103.92
  Q 38.40 101.04 33.82 97.95
  C 30.40 95.63 26.84 93.92 23.50 96.51
  C 11.86 105.51 14.90 128.76 34.45 124.92
  Z
  M 18.16 132.63
  A 0.49 0.49 0.0 0 0 18.11 133.37
  Q 20.10 135.33 22.79 136.03
  Q 23.50 136.21 23.50 135.48
  L 23.50 127.77
  Q 23.50 126.98 22.76 127.24
  L 22.04 127.49
  Q 21.57 127.65 21.40 128.12
  Q 20.43 130.86 18.16 132.63
  Z"
/>
<path d="
  M 36.43 111.78
  L 37.02 112.46
  Q 37.87 113.44 36.59 113.25
  Q 35.01 113.02 33.72 113.92
  Q 32.95 114.45 33.00 113.52
  Q 33.08 111.95 32.00 110.80
  A 0.51 0.51 0.0 0 1 32.47 109.95
  Q 34.26 110.33 35.57 109.20
  A 0.82 0.81 48.8 0 1 36.70 109.28
  Q 37.45 110.11 36.51 110.86
  Q 36.00 111.28 36.43 111.78
  Z"
/>
<path d="
  M 72.23 115.33
  L 70.81 112.67
  Q 70.57 112.22 71.03 111.99
  L 74.33 110.33
  Q 75.04 109.98 75.02 110.77
  Q 74.99 112.40 76.24 113.35
  Q 77.11 114.01 76.02 114.11
  Q 74.40 114.27 73.22 115.47
  Q 72.63 116.08 72.23 115.33
  Z"
/>
<path d="
  M 42.78 124.58
  Q 38.26 132.92 39.50 142.25
  Q 39.72 143.97 41.04 144.83
  Q 41.52 145.14 41.93 144.75
  Q 46.53 140.37 49.35 134.69
  Q 49.72 133.95 50.30 134.54
  L 50.97 135.21
  Q 51.36 135.60 51.11 136.09
  Q 47.91 142.23 42.76 146.94
  A 1.92 1.92 0.0 0 1 40.38 147.11
  C 35.25 143.63 36.59 133.98 38.45 129.00
  Q 39.03 125.68 42.78 124.58
  Z"
/>
<path d="
  M 62.94 137.81
  Q 61.66 137.58 62.44 135.99
  Q 62.65 135.57 63.12 135.63
  C 69.06 136.43 79.85 134.75 83.14 128.71
  Q 83.38 128.27 83.87 128.30
  C 86.49 128.47 83.44 132.58 82.43 133.28
  Q 73.32 139.67 62.94 137.81
  Z"
/>
<path d="
  M 76.10 154.02
  C 77.58 150.57 87.20 160.07 84.76 163.77
  C 81.22 169.14 76.96 168.87 71.16 168.99
  Q 70.60 169.00 70.37 168.50
  C 69.31 166.29 74.45 166.61 75.53 166.57
  C 79.19 166.40 81.10 165.70 82.92 162.72
  Q 83.19 162.29 83.00 161.83
  Q 81.09 157.09 76.41 154.84
  Q 75.86 154.58 76.10 154.02
  Z"
/>
<path d="
  M 41.25 158.79
  L 37.54 159.04
  L 27.40 160.58
  Q 26.90 160.66 26.79 160.17
  C 26.24 157.76 35.29 157.17 37.00 156.96
  L 40.25 156.71
  C 52.61 156.18 64.78 156.21 76.70 159.88
  Q 77.18 160.03 77.29 160.51
  L 77.54 161.61
  Q 77.73 162.42 76.94 162.16
  C 65.69 158.45 52.77 158.09 41.25 158.79
  Z"
/>
</g>
<g >
<path data-color="hair" d="
  M 35.05 59.72
  Q 36.95 60.42 36.59 58.43
  Q 32.85 37.78 42.15 19.01
  Q 42.69 17.91 43.06 19.08
  L 43.80 21.49
  Q 43.94 21.93 44.18 22.32
  C 49.49 30.95 53.89 38.89 60.81 46.27
  A 0.97 0.97 0.0 0 0 62.24 46.25
  C 67.11 40.69 73.04 35.53 77.69 30.43
  Q 81.27 26.50 84.90 22.61
  C 88.33 18.93 93.33 15.34 97.06 10.96
  A 0.70 0.70 0.0 0 1 98.29 11.37
  Q 99.15 24.53 97.92 38.31
  C 97.34 44.85 97.43 50.09 98.01 56.09
  A 0.87 0.87 0.0 0 0 98.95 56.88
  C 111.41 55.85 123.44 53.23 135.95 52.87
  A 0.52 0.52 0.0 0 1 136.33 53.76
  C 129.77 60.38 125.25 69.50 120.79 77.61
  Q 118.67 81.47 118.33 85.22
  A 1.99 1.98 16.1 0 0 119.42 87.18
  Q 131.01 92.97 142.48 98.22
  C 144.52 99.15 146.95 99.50 149.07 100.38
  A 0.89 0.89 0.0 0 1 149.26 101.92
  C 142.03 107.23 133.99 111.26 126.23 115.72
  C 124.45 116.75 121.28 117.76 119.11 119.75
  A 0.90 0.90 0.0 0 0 119.21 121.15
  C 126.12 125.86 133.68 129.67 141.02 133.98
  A 0.91 0.90 -37.9 0 1 140.81 135.63
  C 131.41 138.37 124.43 144.73 116.05 149.93
  A 1.48 1.48 0.0 0 0 115.74 152.18
  L 123.99 161.34
  A 0.59 0.59 0.0 0 1 123.70 162.31
  Q 114.58 164.60 105.23 164.24
  A 0.91 0.91 0.0 0 0 104.34 165.48
  L 108.51 176.12
  Q 108.76 176.76 108.07 176.74
  L 95.00 176.24
  A 0.69 0.68 16.1 0 1 94.43 175.21
  Q 99.35 166.72 101.29 157.09
  Q 101.40 156.56 101.94 156.47
  C 116.94 153.94 117.55 136.00 102.97 132.43
  Q 102.45 132.30 102.49 131.77
  C 103.27 120.83 102.75 113.27 101.88 100.64
  C 100.96 87.24 97.27 72.80 85.14 65.15
  C 65.95 53.05 41.54 55.61 30.22 76.97
  C 29.04 79.19 28.07 82.16 26.96 84.65
  A 1.00 0.99 41.6 0 1 25.19 84.75
  Q 16.89 70.72 12.86 54.90
  Q 12.68 54.19 13.38 54.39
  C 15.84 55.09 18.13 56.30 20.62 56.55
  Q 28.55 57.34 35.05 59.72
  Z"
/>
<path  data-color="hair" d="
  M 24.45 86.84
  C 34.15 85.56 37.27 92.27 45.30 95.22
  C 47.35 95.98 54.59 90.53 56.55 89.15
  Q 64.95 83.27 75.21 85.53
  C 78.48 86.25 78.99 89.58 76.40 91.61
  Q 76.01 91.92 75.52 91.92
  C 64.77 92.09 56.20 96.94 47.81 103.08
  A 2.52 2.50 -49.3 0 1 45.15 103.29
  C 38.78 99.96 33.20 94.35 25.77 93.43
  C 22.24 92.99 20.97 89.75 23.60 87.25
  Q 23.96 86.91 24.45 86.84
  Z"
/>
<path  data-color="hair" d="
  M 16.95 101.50
  A 0.18 0.17 36.4 0 1 16.67 101.54
  L 8.18 93.05
  A 0.29 0.29 0.0 0 1 8.37 92.55
  Q 14.19 92.19 19.54 89.90
  Q 20.22 89.61 20.32 90.34
  Q 20.66 92.78 22.65 94.24
  Q 23.22 94.65 22.64 95.06
  Q 19.04 97.62 16.95 101.50
  Z"
/>
<path  data-color="hair" d="
  M 18.16 132.63
  Q 20.43 130.86 21.40 128.12
  Q 21.57 127.65 22.04 127.49
  L 22.76 127.24
  Q 23.50 126.98 23.50 127.77
  L 23.50 135.48
  Q 23.50 136.21 22.79 136.03
  Q 20.10 135.33 18.11 133.37
  A 0.49 0.49 0.0 0 1 18.16 132.63
  Z"
/>
</g>
<g >
<path  data-color="eye" d="
  M 69.10 94.74
  C 83.47 97.27 87.72 116.63 76.38 124.32
  C 68.67 129.54 58.35 128.31 52.18 121.18
  C 48.77 117.24 47.52 105.39 52.17 101.97
  C 56.25 98.98 63.83 93.82 69.10 94.74
  Z
  M 73.22 115.47
  Q 74.40 114.27 76.02 114.11
  Q 77.11 114.01 76.24 113.35
  Q 74.99 112.40 75.02 110.77
  Q 75.04 109.98 74.33 110.33
  L 71.03 111.99
  Q 70.57 112.22 70.81 112.67
  L 72.23 115.33
  Q 72.63 116.08 73.22 115.47
  Z"
/>
<path  data-color="eye" d="
  M 43.76 104.64
  C 46.82 112.28 43.34 123.18 34.45 124.92
  C 14.90 128.76 11.86 105.51 23.50 96.51
  C 26.84 93.92 30.40 95.63 33.82 97.95
  Q 38.40 101.04 43.15 103.92
  Q 43.57 104.18 43.76 104.64
  Z
  M 36.51 110.86
  Q 37.45 110.11 36.70 109.28
  A 0.82 0.81 48.8 0 0 35.57 109.20
  Q 34.26 110.33 32.47 109.95
  A 0.51 0.51 0.0 0 0 32.00 110.80
  Q 33.08 111.95 33.00 113.52
  Q 32.95 114.45 33.72 113.92
  Q 35.01 113.02 36.59 113.25
  Q 37.87 113.44 37.02 112.46
  L 36.43 111.78
  Q 36.00 111.28 36.51 110.86
  Z"
/>
</g>
<g fill="#996976">
<path d="
  M 47.82 118.04
  C 53.93 129.59 67.81 132.90 78.40 125.21
  C 80.52 123.68 81.79 121.33 83.46 119.25
  C 86.05 132.81 66.98 135.58 58.39 132.77
  Q 48.39 129.50 47.82 118.04
  Z"
/>
<path d="
  M 44.46 119.75
  Q 44.17 122.48 42.78 124.58
  Q 39.03 125.68 38.45 129.00
  Q 31.84 133.15 25.29 129.00
  Q 25.13 128.23 25.29 127.45
  Q 25.40 126.97 25.89 127.03
  C 34.46 128.02 39.00 126.38 44.46 119.75
  Z"
/>
<path d="
  M 40.25 156.71
  L 37.00 156.96
  Q 32.42 153.64 33.65 147.30
  Q 34.02 145.41 34.85 147.14
  C 35.87 149.29 34.75 151.23 37.78 152.57
  C 40.00 153.55 40.80 154.25 40.25 156.71
  Z"
/>
<path d="
  M 41.25 158.79
  C 40.59 164.48 38.27 168.32 41.47 174.04
  Q 41.78 174.61 41.32 175.00
  Q 40.89 175.37 40.53 174.92
  Q 34.98 167.98 37.54 159.04
  L 41.25 158.79
  Z"
/>
</g>
</svg>
