<?xml version="1.0" encoding="UTF-8" standalone="no"?>
<svg xmlns="http://www.w3.org/2000/svg" version="1.2" baseProfile="tiny" viewBox="0 0 675 606">
<g stroke-width="2.00" fill="none" stroke-linecap="butt">
<path stroke="#61402d" vector-effect="non-scaling-stroke" d="
  M 82.25 196.05
  L 153.19 216.34
  A 1.76 1.75 -67.9 0 0 155.21 215.48
  Q 167.72 192.24 187.50 174.26
  C 210.63 153.23 234.98 136.31 264.11 125.84
  C 290.83 116.24 318.90 110.07 347.75 110.51
  C 376.44 110.95 402.33 113.78 429.18 124.87
  C 462.58 138.68 491.68 149.37 514.88 177.64
  C 521.31 185.46 528.06 193.46 532.60 202.60
  A 0.58 0.57 -47.5 0 0 533.65 202.55
  Q 534.72 199.89 535.31 196.71
  Q 538.10 181.73 540.99 166.76
  C 544.46 148.83 531.47 134.17 522.54 120.42
  C 515.85 110.13 509.48 96.60 502.24 86.78
  Q 486.85 65.94 463.42 51.95
  C 445.39 41.19 425.54 31.77 406.28 23.43
  Q 385.23 14.31 363.00 12.75
  C 353.09 12.06 343.66 14.06 333.85 14.48
  Q 311.20 15.45 289.82 22.70
  C 267.95 30.11 248.36 31.19 227.09 34.74
  C 211.17 37.40 199.03 41.56 186.48 50.20
  C 168.19 62.80 152.46 78.49 135.19 92.45
  Q 123.00 102.30 112.63 114.02
  C 93.02 136.18 87.72 164.78 81.48 194.76
  Q 81.27 195.77 82.25 196.05"
/>
<path stroke="#927e78" vector-effect="non-scaling-stroke" d="
  M 159.57 217.69
  C 176.56 220.63 192.87 223.37 210.21 225.33
  Q 233.30 227.93 256.41 231.00
  Q 256.97 231.07 257.25 230.58
  C 259.29 226.98 260.82 223.20 263.79 220.53
  C 272.90 212.33 286.99 207.93 298.50 205.67
  Q 365.57 192.50 427.90 219.31
  Q 436.53 223.03 443.31 231.02
  Q 443.67 231.44 444.17 231.22
  Q 448.09 229.47 451.08 228.62
  Q 469.87 223.25 488.87 218.67
  A 0.31 0.31 0.0 0 0 488.94 218.10
  L 479.92 213.14
  A 1.78 1.78 0.0 0 1 479.49 210.35
  C 482.50 207.18 493.06 214.70 495.63 216.70
  Q 496.02 217.00 496.52 216.95
  Q 513.54 215.04 529.85 209.96
  Q 530.39 209.79 530.16 209.27
  C 525.73 198.95 519.65 191.52 512.19 182.34
  C 498.24 165.19 481.47 152.63 461.07 143.91
  Q 445.32 137.18 429.55 130.54
  C 397.98 117.24 367.38 114.69 334.19 116.01
  Q 321.35 116.52 312.42 118.37
  C 302.25 120.48 291.46 122.18 282.00 125.15
  C 262.70 131.19 243.94 138.82 226.94 149.94
  Q 202.65 165.84 182.33 186.57
  C 173.23 195.85 166.59 206.55 159.36 217.20
  A 0.32 0.32 0.0 0 0 159.57 217.69"
/>
<path stroke="#61402d" vector-effect="non-scaling-stroke" d="
  M 140.04 239.73
  C 116.65 234.71 94.37 230.56 73.07 219.47
  A 0.60 0.60 0.0 0 0 72.27 219.71
  C 60.25 241.30 43.71 268.78 48.56 294.51
  C 51.24 308.77 58.80 321.45 61.27 336.08
  C 64.91 357.61 71.47 380.43 89.77 394.05
  Q 90.39 394.51 90.34 393.74
  C 88.89 374.61 92.60 357.78 110.61 348.07
  Q 111.07 347.82 111.09 347.30
  Q 111.37 340.03 111.72 332.76
  Q 112.53 315.51 117.96 299.26
  C 124.64 279.30 128.91 258.19 140.25 240.23
  Q 140.50 239.83 140.04 239.73"
/>
<path stroke="#927e78" vector-effect="non-scaling-stroke" d="
  M 142.99 344.90
  C 142.24 345.68 141.22 346.36 140.05 346.44
  C 123.02 347.67 106.03 350.91 98.58 367.93
  Q 94.92 376.28 95.11 387.46
  Q 95.48 409.81 112.48 423.83
  C 122.31 431.93 135.08 434.84 147.70 434.91
  A 1.24 1.24 0.0 0 1 148.81 436.66
  C 146.90 440.89 135.96 439.08 132.49 438.21
  A 0.45 0.45 0.0 0 0 131.99 438.86
  Q 143.49 460.03 153.94 481.62
  C 164.27 502.97 185.99 521.30 206.19 532.59
  C 221.88 541.36 239.17 548.42 256.74 553.03
  Q 286.48 560.83 316.11 569.01
  C 339.65 575.51 363.12 576.18 387.45 575.75
  C 408.34 575.39 425.50 570.49 444.07 560.32
  Q 471.61 545.22 492.82 530.66
  C 511.46 517.85 525.41 500.85 538.48 482.64
  C 547.96 469.43 554.19 456.52 558.37 441.31
  C 563.62 422.21 569.26 403.99 572.15 384.86
  Q 572.23 384.34 571.79 384.62
  Q 542.28 402.64 509.05 394.62
  C 495.95 391.46 481.01 379.42 472.93 369.81
  C 452.70 345.77 455.02 307.48 465.95 279.98
  A 1.78 1.78 0.0 0 1 468.47 279.09
  C 471.95 281.05 469.27 285.92 468.11 288.72
  Q 467.85 289.35 468.53 289.30
  C 515.05 285.83 558.66 292.32 600.78 310.02
  A 0.58 0.58 0.0 0 0 601.58 309.43
  Q 598.81 283.83 582.67 263.58
  C 571.91 250.09 553.78 242.91 536.99 239.55
  A 1.05 1.05 0.0 0 1 536.57 237.68
  Q 539.85 235.25 543.81 236.74
  A 0.49 0.49 0.0 0 0 544.43 236.07
  L 542.44 231.96
  Q 542.19 231.44 541.65 231.65
  Q 528.33 236.83 523.25 238.00
  C 498.45 243.75 473.67 250.13 449.08 256.70
  A 0.75 0.74 -5.9 0 0 448.52 257.38
  C 447.78 269.10 446.23 280.42 442.90 291.87
  Q 437.87 309.14 430.67 325.63
  C 423.87 341.19 414.10 353.61 400.71 363.22
  Q 384.07 375.15 368.70 380.75
  C 354.47 385.93 340.21 386.31 324.26 385.41
  Q 321.89 385.28 320.21 384.52
  Q 301.60 376.09 285.67 363.49
  C 274.66 354.79 265.03 340.17 259.07 328.18
  C 248.27 306.44 246.31 281.34 249.22 256.98
  Q 249.28 256.50 248.80 256.50
  Q 240.87 256.51 234.81 255.91
  Q 190.96 251.58 146.53 241.13
  Q 146.04 241.01 145.75 241.42
  Q 138.12 252.21 134.76 263.01
  Q 128.40 283.51 121.84 303.95
  C 117.46 317.61 116.61 329.66 115.83 345.01
  Q 115.80 345.55 116.31 345.37
  C 122.07 343.38 138.74 339.37 143.00 344.02
  Q 143.40 344.46 142.99 344.90"
/>
<path stroke="#989796" vector-effect="non-scaling-stroke" d="
  M 478.11 367.91
  C 487.85 378.54 501.26 388.51 515.70 390.83
  C 534.81 393.90 559.25 390.14 573.48 376.12
  Q 597.63 352.32 601.92 317.41
  Q 602.08 316.06 600.83 315.53
  C 577.65 305.74 552.09 298.30 526.83 295.54
  Q 497.10 292.28 467.12 294.00
  Q 466.62 294.03 466.50 294.52
  C 460.84 318.87 460.02 348.16 478.11 367.91"
/>
<path stroke="#927e78" vector-effect="non-scaling-stroke" d="
  M 386.74 186.77
  C 387.04 182.70 377.94 179.53 374.80 178.36
  C 361.22 173.30 344.78 167.99 330.25 167.55
  Q 313.25 167.04 296.26 167.15
  Q 293.54 167.17 294.09 169.23
  A 2.19 2.19 0.0 0 0 296.00 170.87
  Q 311.26 172.38 325.94 172.66
  C 345.76 173.05 366.27 179.98 384.36 188.19
  A 1.69 1.69 0.0 0 0 386.74 186.77"
/>
<path stroke="#927e78" vector-effect="non-scaling-stroke" d="
  M 431.56 413.44
  C 441.57 421.69 453.90 426.95 466.33 422.09
  Q 475.55 418.48 476.22 407.76
  C 477.04 394.73 468.85 384.52 459.71 376.05
  C 458.01 374.47 455.35 374.67 455.24 377.37
  Q 455.22 377.85 455.53 378.21
  Q 457.77 380.79 464.72 389.27
  C 470.69 396.54 476.29 412.99 464.01 417.48
  C 452.02 421.87 439.37 414.30 430.57 405.84
  C 429.16 404.49 427.77 404.05 426.15 405.20
  A 1.65 1.65 0.0 0 0 425.64 407.32
  C 426.97 409.87 428.66 411.05 431.56 413.44"
/>
<path stroke="#927e78" vector-effect="non-scaling-stroke" d="
  M 340.55 490.19
  C 348.25 491.36 357.33 488.52 364.89 486.89
  Q 367.66 486.29 378.39 483.49
  Q 402.07 477.30 426.46 480.49
  C 432.85 481.32 439.68 483.48 446.27 485.16
  C 449.93 486.10 451.35 482.09 448.04 480.82
  C 430.49 474.08 411.12 472.87 392.62 475.32
  Q 386.10 476.19 373.09 479.55
  Q 358.49 483.32 343.78 486.62
  Q 341.70 487.08 340.10 488.14
  A 1.12 1.12 0.0 0 0 340.55 490.19"
/>
<path stroke="#989796" vector-effect="non-scaling-stroke" d="
  M 500.35 306.11
  L 501.57 304.42
  Q 501.89 303.98 501.49 303.62
  L 495.71 298.47
  Q 495.34 298.14 494.87 298.31
  Q 493.09 299.00 492.93 300.91
  Q 492.89 301.46 492.35 301.60
  Q 490.48 302.10 490.51 304.04
  Q 490.52 304.64 489.99 304.94
  C 488.07 306.00 486.65 309.14 489.89 309.47
  Q 490.36 309.52 490.67 309.88
  L 492.06 311.47
  Q 492.42 311.89 492.95 311.74
  C 494.71 311.24 496.80 312.90 497.74 311.13
  Q 497.99 310.64 498.53 310.73
  C 501.23 311.17 502.67 308.47 500.47 306.85
  Q 500.05 306.54 500.35 306.11"
/>
</g>
<g>
<path data-color="skin" d="
  M 159.57 217.69
  A 0.32 0.32 0.0 0 1 159.36 217.20
  C 166.59 206.55 173.23 195.85 182.33 186.57
  Q 202.65 165.84 226.94 149.94
  C 243.94 138.82 262.70 131.19 282.00 125.15
  C 291.46 122.18 302.25 120.48 312.42 118.37
  Q 321.35 116.52 334.19 116.01
  C 367.38 114.69 397.98 117.24 429.55 130.54
  Q 445.32 137.18 461.07 143.91
  C 481.47 152.63 498.24 165.19 512.19 182.34
  C 519.65 191.52 525.73 198.95 530.16 209.27
  Q 530.39 209.79 529.85 209.96
  Q 513.54 215.04 496.52 216.95
  Q 496.02 217.00 495.63 216.70
  C 493.06 214.70 482.50 207.18 479.49 210.35
  A 1.78 1.78 0.0 0 0 479.92 213.14
  L 488.94 218.10
  A 0.31 0.31 0.0 0 1 488.87 218.67
  Q 469.87 223.25 451.08 228.62
  Q 448.09 229.47 444.17 231.22
  Q 443.67 231.44 443.31 231.02
  Q 436.53 223.03 427.90 219.31
  Q 365.57 192.50 298.50 205.67
  C 286.99 207.93 272.90 212.33 263.79 220.53
  C 260.82 223.20 259.29 226.98 257.25 230.58
  Q 256.97 231.07 256.41 231.00
  Q 233.30 227.93 210.21 225.33
  C 192.87 223.37 176.56 220.63 159.57 217.69
  Z
  M 386.74 186.77
  C 387.04 182.70 377.94 179.53 374.80 178.36
  C 361.22 173.30 344.78 167.99 330.25 167.55
  Q 313.25 167.04 296.26 167.15
  Q 293.54 167.17 294.09 169.23
  A 2.19 2.19 0.0 0 0 296.00 170.87
  Q 311.26 172.38 325.94 172.66
  C 345.76 173.05 366.27 179.98 384.36 188.19
  A 1.69 1.69 0.0 0 0 386.74 186.77
  Z"
/>
<path data-color="skin" d="
  M 143.00 344.02
  C 138.74 339.37 122.07 343.38 116.31 345.37
  Q 115.80 345.55 115.83 345.01
  C 116.61 329.66 117.46 317.61 121.84 303.95
  Q 128.40 283.51 134.76 263.01
  Q 138.12 252.21 145.75 241.42
  Q 146.04 241.01 146.53 241.13
  Q 190.96 251.58 234.81 255.91
  Q 240.87 256.51 248.80 256.50
  Q 249.28 256.50 249.22 256.98
  C 246.31 281.34 248.27 306.44 259.07 328.18
  C 265.03 340.17 274.66 354.79 285.67 363.49
  Q 301.60 376.09 320.21 384.52
  Q 321.89 385.28 324.26 385.41
  C 340.21 386.31 354.47 385.93 368.70 380.75
  Q 384.07 375.15 400.71 363.22
  C 414.10 353.61 423.87 341.19 430.67 325.63
  Q 437.87 309.14 442.90 291.87
  C 446.23 280.42 447.78 269.10 448.52 257.38
  A 0.75 0.74 -5.9 0 1 449.08 256.70
  C 473.67 250.13 498.45 243.75 523.25 238.00
  Q 528.33 236.83 541.65 231.65
  Q 542.19 231.44 542.44 231.96
  L 544.43 236.07
  A 0.49 0.49 0.0 0 1 543.81 236.74
  Q 539.85 235.25 536.57 237.68
  A 1.05 1.05 0.0 0 0 536.99 239.55
  C 553.78 242.91 571.91 250.09 582.67 263.58
  Q 598.81 283.83 601.58 309.43
  A 0.58 0.58 0.0 0 1 600.78 310.02
  C 558.66 292.32 515.05 285.83 468.53 289.30
  Q 467.85 289.35 468.11 288.72
  C 469.27 285.92 471.95 281.05 468.47 279.09
  A 1.78 1.78 0.0 0 0 465.95 279.98
  C 455.02 307.48 452.70 345.77 472.93 369.81
  C 481.01 379.42 495.95 391.46 509.05 394.62
  Q 542.28 402.64 571.79 384.62
  Q 572.23 384.34 572.15 384.86
  C 569.26 403.99 563.62 422.21 558.37 441.31
  C 554.19 456.52 547.96 469.43 538.48 482.64
  C 525.41 500.85 511.46 517.85 492.82 530.66
  Q 471.61 545.22 444.07 560.32
  C 425.50 570.49 408.34 575.39 387.45 575.75
  C 363.12 576.18 339.65 575.51 316.11 569.01
  Q 286.48 560.83 256.74 553.03
  C 239.17 548.42 221.88 541.36 206.19 532.59
  C 185.99 521.30 164.27 502.97 153.94 481.62
  Q 143.49 460.03 131.99 438.86
  A 0.45 0.45 0.0 0 1 132.49 438.21
  C 135.96 439.08 146.90 440.89 148.81 436.66
  A 1.24 1.24 0.0 0 0 147.70 434.91
  C 135.08 434.84 122.31 431.93 112.48 423.83
  Q 95.48 409.81 95.11 387.46
  Q 94.92 376.28 98.58 367.93
  C 106.03 350.91 123.02 347.67 140.05 346.44
  C 141.22 346.36 142.24 345.68 142.99 344.90
  Q 143.40 344.46 143.00 344.02
  Z
  M 431.56 413.44
  C 441.57 421.69 453.90 426.95 466.33 422.09
  Q 475.55 418.48 476.22 407.76
  C 477.04 394.73 468.85 384.52 459.71 376.05
  C 458.01 374.47 455.35 374.67 455.24 377.37
  Q 455.22 377.85 455.53 378.21
  Q 457.77 380.79 464.72 389.27
  C 470.69 396.54 476.29 412.99 464.01 417.48
  C 452.02 421.87 439.37 414.30 430.57 405.84
  C 429.16 404.49 427.77 404.05 426.15 405.20
  A 1.65 1.65 0.0 0 0 425.64 407.32
  C 426.97 409.87 428.66 411.05 431.56 413.44
  Z
  M 340.55 490.19
  C 348.25 491.36 357.33 488.52 364.89 486.89
  Q 367.66 486.29 378.39 483.49
  Q 402.07 477.30 426.46 480.49
  C 432.85 481.32 439.68 483.48 446.27 485.16
  C 449.93 486.10 451.35 482.09 448.04 480.82
  C 430.49 474.08 411.12 472.87 392.62 475.32
  Q 386.10 476.19 373.09 479.55
  Q 358.49 483.32 343.78 486.62
  Q 341.70 487.08 340.10 488.14
  A 1.12 1.12 0.0 0 0 340.55 490.19
  Z"
/>
</g>
<g >
<path data-color="hair" d="
  M 82.25 196.05
  Q 81.27 195.77 81.48 194.76
  C 87.72 164.78 93.02 136.18 112.63 114.02
  Q 123.00 102.30 135.19 92.45
  C 152.46 78.49 168.19 62.80 186.48 50.20
  C 199.03 41.56 211.17 37.40 227.09 34.74
  C 248.36 31.19 267.95 30.11 289.82 22.70
  Q 311.20 15.45 333.85 14.48
  C 343.66 14.06 353.09 12.06 363.00 12.75
  Q 385.23 14.31 406.28 23.43
  C 425.54 31.77 445.39 41.19 463.42 51.95
  Q 486.85 65.94 502.24 86.78
  C 509.48 96.60 515.85 110.13 522.54 120.42
  C 531.47 134.17 544.46 148.83 540.99 166.76
  Q 538.10 181.73 535.31 196.71
  Q 534.72 199.89 533.65 202.55
  A 0.58 0.57 -47.5 0 1 532.60 202.60
  C 528.06 193.46 521.31 185.46 514.88 177.64
  C 491.68 149.37 462.58 138.68 429.18 124.87
  C 402.33 113.78 376.44 110.95 347.75 110.51
  C 318.90 110.07 290.83 116.24 264.11 125.84
  C 234.98 136.31 210.63 153.23 187.50 174.26
  Q 167.72 192.24 155.21 215.48
  A 1.76 1.75 -67.9 0 1 153.19 216.34
  L 82.25 196.05
  Z"
/>
<path data-color="hair" d="
  M 140.04 239.73
  Q 140.50 239.83 140.25 240.23
  C 128.91 258.19 124.64 279.30 117.96 299.26
  Q 112.53 315.51 111.72 332.76
  Q 111.37 340.03 111.09 347.30
  Q 111.07 347.82 110.61 348.07
  C 92.60 357.78 88.89 374.61 90.34 393.74
  Q 90.39 394.51 89.77 394.05
  C 71.47 380.43 64.91 357.61 61.27 336.08
  C 58.80 321.45 51.24 308.77 48.56 294.51
  C 43.71 268.78 60.25 241.30 72.27 219.71
  A 0.60 0.60 0.0 0 1 73.07 219.47
  C 94.37 230.56 116.65 234.71 140.04 239.73
  Z"
/>
</g>
<g >
<path data-color="line" d="
  M 76.35 194.61
  Q 77.63 194.64 77.81 193.37
  Q 80.24 175.73 84.98 158.28
  C 89.08 143.14 96.31 125.40 106.64 113.63
  Q 119.88 98.56 135.38 85.92
  C 162.12 64.12 185.16 37.69 218.02 31.30
  C 228.42 29.28 237.53 28.07 252.42 26.23
  Q 270.92 23.95 291.25 17.29
  Q 311.25 10.74 332.27 9.82
  C 342.96 9.35 353.49 6.97 364.19 7.92
  C 380.65 9.39 395.23 13.62 410.97 20.38
  Q 436.78 31.46 461.29 45.23
  C 483.29 57.59 501.90 74.93 514.26 96.96
  Q 525.63 117.23 538.82 136.36
  C 543.13 142.63 545.75 151.66 546.39 158.45
  C 547.05 165.45 544.29 173.31 543.32 179.95
  C 542.07 188.53 540.99 198.91 536.67 206.54
  A 0.58 0.58 0.0 0 0 537.35 207.38
  C 546.35 204.53 557.88 222.83 546.56 228.91
  Q 546.04 229.19 546.30 229.73
  C 547.06 231.29 550.01 238.21 551.52 238.67
  C 566.36 243.12 578.49 250.02 587.90 262.35
  C 601.54 280.24 609.67 304.63 605.16 326.99
  Q 598.96 357.69 576.37 380.10
  Q 576.02 380.44 576.01 380.93
  Q 575.71 394.02 572.24 408.00
  Q 566.06 432.85 560.26 451.30
  C 553.11 474.00 537.73 492.83 521.42 511.67
  Q 509.40 525.54 496.16 534.46
  Q 473.65 549.61 446.30 564.77
  C 426.14 575.95 406.51 580.47 383.75 580.72
  Q 365.50 580.93 347.31 579.38
  C 329.56 577.88 313.26 573.57 296.33 568.69
  C 279.84 563.93 261.56 559.55 247.44 555.30
  Q 232.09 550.69 225.56 547.45
  C 217.17 543.29 207.56 539.09 200.34 534.81
  C 180.77 523.20 161.11 505.65 150.26 485.25
  Q 146.62 478.42 138.33 461.10
  C 134.91 453.96 129.76 445.35 126.13 437.08
  Q 125.92 436.59 125.42 436.40
  C 121.25 434.84 117.25 433.28 113.67 430.83
  Q 97.54 419.76 91.71 400.82
  Q 91.55 400.33 91.11 400.07
  C 65.51 385.33 60.33 357.06 55.25 330.00
  Q 54.29 324.89 47.38 307.23
  C 34.75 274.99 52.87 244.66 68.03 217.47
  A 1.10 1.09 -69.6 0 0 67.30 215.86
  C 61.55 214.68 68.49 194.41 76.35 194.61
  Z
  M 82.25 196.05
  L 153.19 216.34
  A 1.76 1.75 -67.9 0 0 155.21 215.48
  Q 167.72 192.24 187.50 174.26
  C 210.63 153.23 234.98 136.31 264.11 125.84
  C 290.83 116.24 318.90 110.07 347.75 110.51
  C 376.44 110.95 402.33 113.78 429.18 124.87
  C 462.58 138.68 491.68 149.37 514.88 177.64
  C 521.31 185.46 528.06 193.46 532.60 202.60
  A 0.58 0.57 -47.5 0 0 533.65 202.55
  Q 534.72 199.89 535.31 196.71
  Q 538.10 181.73 540.99 166.76
  C 544.46 148.83 531.47 134.17 522.54 120.42
  C 515.85 110.13 509.48 96.60 502.24 86.78
  Q 486.85 65.94 463.42 51.95
  C 445.39 41.19 425.54 31.77 406.28 23.43
  Q 385.23 14.31 363.00 12.75
  C 353.09 12.06 343.66 14.06 333.85 14.48
  Q 311.20 15.45 289.82 22.70
  C 267.95 30.11 248.36 31.19 227.09 34.74
  C 211.17 37.40 199.03 41.56 186.48 50.20
  C 168.19 62.80 152.46 78.49 135.19 92.45
  Q 123.00 102.30 112.63 114.02
  C 93.02 136.18 87.72 164.78 81.48 194.76
  Q 81.27 195.77 82.25 196.05
  Z
  M 159.57 217.69
  C 176.56 220.63 192.87 223.37 210.21 225.33
  Q 233.30 227.93 256.41 231.00
  Q 256.97 231.07 257.25 230.58
  C 259.29 226.98 260.82 223.20 263.79 220.53
  C 272.90 212.33 286.99 207.93 298.50 205.67
  Q 365.57 192.50 427.90 219.31
  Q 436.53 223.03 443.31 231.02
  Q 443.67 231.44 444.17 231.22
  Q 448.09 229.47 451.08 228.62
  Q 469.87 223.25 488.87 218.67
  A 0.31 0.31 0.0 0 0 488.94 218.10
  L 479.92 213.14
  A 1.78 1.78 0.0 0 1 479.49 210.35
  C 482.50 207.18 493.06 214.70 495.63 216.70
  Q 496.02 217.00 496.52 216.95
  Q 513.54 215.04 529.85 209.96
  Q 530.39 209.79 530.16 209.27
  C 525.73 198.95 519.65 191.52 512.19 182.34
  C 498.24 165.19 481.47 152.63 461.07 143.91
  Q 445.32 137.18 429.55 130.54
  C 397.98 117.24 367.38 114.69 334.19 116.01
  Q 321.35 116.52 312.42 118.37
  C 302.25 120.48 291.46 122.18 282.00 125.15
  C 262.70 131.19 243.94 138.82 226.94 149.94
  Q 202.65 165.84 182.33 186.57
  C 173.23 195.85 166.59 206.55 159.36 217.20
  A 0.32 0.32 0.0 0 0 159.57 217.69
  Z
  M 140.04 239.73
  C 116.65 234.71 94.37 230.56 73.07 219.47
  A 0.60 0.60 0.0 0 0 72.27 219.71
  C 60.25 241.30 43.71 268.78 48.56 294.51
  C 51.24 308.77 58.80 321.45 61.27 336.08
  C 64.91 357.61 71.47 380.43 89.77 394.05
  Q 90.39 394.51 90.34 393.74
  C 88.89 374.61 92.60 357.78 110.61 348.07
  Q 111.07 347.82 111.09 347.30
  Q 111.37 340.03 111.72 332.76
  Q 112.53 315.51 117.96 299.26
  C 124.64 279.30 128.91 258.19 140.25 240.23
  Q 140.50 239.83 140.04 239.73
  Z
  M 142.99 344.90
  C 142.24 345.68 141.22 346.36 140.05 346.44
  C 123.02 347.67 106.03 350.91 98.58 367.93
  Q 94.92 376.28 95.11 387.46
  Q 95.48 409.81 112.48 423.83
  C 122.31 431.93 135.08 434.84 147.70 434.91
  A 1.24 1.24 0.0 0 1 148.81 436.66
  C 146.90 440.89 135.96 439.08 132.49 438.21
  A 0.45 0.45 0.0 0 0 131.99 438.86
  Q 143.49 460.03 153.94 481.62
  C 164.27 502.97 185.99 521.30 206.19 532.59
  C 221.88 541.36 239.17 548.42 256.74 553.03
  Q 286.48 560.83 316.11 569.01
  C 339.65 575.51 363.12 576.18 387.45 575.75
  C 408.34 575.39 425.50 570.49 444.07 560.32
  Q 471.61 545.22 492.82 530.66
  C 511.46 517.85 525.41 500.85 538.48 482.64
  C 547.96 469.43 554.19 456.52 558.37 441.31
  C 563.62 422.21 569.26 403.99 572.15 384.86
  Q 572.23 384.34 571.79 384.62
  Q 542.28 402.64 509.05 394.62
  C 495.95 391.46 481.01 379.42 472.93 369.81
  C 452.70 345.77 455.02 307.48 465.95 279.98
  A 1.78 1.78 0.0 0 1 468.47 279.09
  C 471.95 281.05 469.27 285.92 468.11 288.72
  Q 467.85 289.35 468.53 289.30
  C 515.05 285.83 558.66 292.32 600.78 310.02
  A 0.58 0.58 0.0 0 0 601.58 309.43
  Q 598.81 283.83 582.67 263.58
  C 571.91 250.09 553.78 242.91 536.99 239.55
  A 1.05 1.05 0.0 0 1 536.57 237.68
  Q 539.85 235.25 543.81 236.74
  A 0.49 0.49 0.0 0 0 544.43 236.07
  L 542.44 231.96
  Q 542.19 231.44 541.65 231.65
  Q 528.33 236.83 523.25 238.00
  C 498.45 243.75 473.67 250.13 449.08 256.70
  A 0.75 0.74 -5.9 0 0 448.52 257.38
  C 447.78 269.10 446.23 280.42 442.90 291.87
  Q 437.87 309.14 430.67 325.63
  C 423.87 341.19 414.10 353.61 400.71 363.22
  Q 384.07 375.15 368.70 380.75
  C 354.47 385.93 340.21 386.31 324.26 385.41
  Q 321.89 385.28 320.21 384.52
  Q 301.60 376.09 285.67 363.49
  C 274.66 354.79 265.03 340.17 259.07 328.18
  C 248.27 306.44 246.31 281.34 249.22 256.98
  Q 249.28 256.50 248.80 256.50
  Q 240.87 256.51 234.81 255.91
  Q 190.96 251.58 146.53 241.13
  Q 146.04 241.01 145.75 241.42
  Q 138.12 252.21 134.76 263.01
  Q 128.40 283.51 121.84 303.95
  C 117.46 317.61 116.61 329.66 115.83 345.01
  Q 115.80 345.55 116.31 345.37
  C 122.07 343.38 138.74 339.37 143.00 344.02
  Q 143.40 344.46 142.99 344.90
  Z
  M 478.11 367.91
  C 487.85 378.54 501.26 388.51 515.70 390.83
  C 534.81 393.90 559.25 390.14 573.48 376.12
  Q 597.63 352.32 601.92 317.41
  Q 602.08 316.06 600.83 315.53
  C 577.65 305.74 552.09 298.30 526.83 295.54
  Q 497.10 292.28 467.12 294.00
  Q 466.62 294.03 466.50 294.52
  C 460.84 318.87 460.02 348.16 478.11 367.91
  Z"
/>
<path data-color="line" d="
  M 374.80 178.36
  C 377.94 179.53 387.04 182.70 386.74 186.77
  A 1.69 1.69 0.0 0 1 384.36 188.19
  C 366.27 179.98 345.76 173.05 325.94 172.66
  Q 311.26 172.38 296.00 170.87
  A 2.19 2.19 0.0 0 1 294.09 169.23
  Q 293.54 167.17 296.26 167.15
  Q 313.25 167.04 330.25 167.55
  C 344.78 167.99 361.22 173.30 374.80 178.36
  Z"
/>
<path data-color="line" d="
  M 500.47 306.85
  C 502.67 308.47 501.23 311.17 498.53 310.73
  Q 497.99 310.64 497.74 311.13
  C 496.80 312.90 494.71 311.24 492.95 311.74
  Q 492.42 311.89 492.06 311.47
  L 490.67 309.88
  Q 490.36 309.52 489.89 309.47
  C 486.65 309.14 488.07 306.00 489.99 304.94
  Q 490.52 304.64 490.51 304.04
  Q 490.48 302.10 492.35 301.60
  Q 492.89 301.46 492.93 300.91
  Q 493.09 299.00 494.87 298.31
  Q 495.34 298.14 495.71 298.47
  L 501.49 303.62
  Q 501.89 303.98 501.57 304.42
  L 500.35 306.11
  Q 500.05 306.54 500.47 306.85
  Z"
/>
<path data-color="line" d="
  M 431.56 413.44
  C 428.66 411.05 426.97 409.87 425.64 407.32
  A 1.65 1.65 0.0 0 1 426.15 405.20
  C 427.77 404.05 429.16 404.49 430.57 405.84
  C 439.37 414.30 452.02 421.87 464.01 417.48
  C 476.29 412.99 470.69 396.54 464.72 389.27
  Q 457.77 380.79 455.53 378.21
  Q 455.22 377.85 455.24 377.37
  C 455.35 374.67 458.01 374.47 459.71 376.05
  C 468.85 384.52 477.04 394.73 476.22 407.76
  Q 475.55 418.48 466.33 422.09
  C 453.90 426.95 441.57 421.69 431.56 413.44
  Z"
/>
<path data-color="line" d="
  M 340.55 490.19
  A 1.12 1.12 0.0 0 1 340.10 488.14
  Q 341.70 487.08 343.78 486.62
  Q 358.49 483.32 373.09 479.55
  Q 386.10 476.19 392.62 475.32
  C 411.12 472.87 430.49 474.08 448.04 480.82
  C 451.35 482.09 449.93 486.10 446.27 485.16
  C 439.68 483.48 432.85 481.32 426.46 480.49
  Q 402.07 477.30 378.39 483.49
  Q 367.66 486.29 364.89 486.89
  C 357.33 488.52 348.25 491.36 340.55 490.19
  Z"
/>
</g>
<path data-color="eye" d="
  M 478.11 367.91
  C 460.02 348.16 460.84 318.87 466.50 294.52
  Q 466.62 294.03 467.12 294.00
  Q 497.10 292.28 526.83 295.54
  C 552.09 298.30 577.65 305.74 600.83 315.53
  Q 602.08 316.06 601.92 317.41
  Q 597.63 352.32 573.48 376.12
  C 559.25 390.14 534.81 393.90 515.70 390.83
  C 501.26 388.51 487.85 378.54 478.11 367.91
  Z
  M 500.35 306.11
  L 501.57 304.42
  Q 501.89 303.98 501.49 303.62
  L 495.71 298.47
  Q 495.34 298.14 494.87 298.31
  Q 493.09 299.00 492.93 300.91
  Q 492.89 301.46 492.35 301.60
  Q 490.48 302.10 490.51 304.04
  Q 490.52 304.64 489.99 304.94
  C 488.07 306.00 486.65 309.14 489.89 309.47
  Q 490.36 309.52 490.67 309.88
  L 492.06 311.47
  Q 492.42 311.89 492.95 311.74
  C 494.71 311.24 496.80 312.90 497.74 311.13
  Q 497.99 310.64 498.53 310.73
  C 501.23 311.17 502.67 308.47 500.47 306.85
  Q 500.05 306.54 500.35 306.11
  Z"
/>
</svg>
