<?xml version="1.0" encoding="utf-8"?>

<!-- Uploaded to: SVG Repo, www.svgrepo.com, Generator: SVG Repo Mixer Tools -->
<svg width="800px" height="800px" viewBox="0 0 64 64" xmlns="http://www.w3.org/2000/svg">

<path d="m9.86 27.93a28 28 0 0 1 -4.5-6.77c-1.9-4.05-1.92-6.3-1.5-6.46s6.52.11 9.3.13 4 0 4-.16-.41-4.6-.76-7-.69-4-.49-4.06a27.67 27.67 0 0 1 8.49 2c5 1.83 6 3.61 6 3.61a38 38 0 0 1 9.24-5.22c4.85-1.7 6.76-1.46 6.93-1.17s-2.28 11.39-1.86 11.51a22 22 0 0 0 6.59-1.09c2.73-.89 7-3 7.45-3s.82 3.52-1.06 7.85-2.33 4.92-2.16 5a28.33 28.33 0 0 0 4.06-1.36c1.41-.59 2.15-.68 2.32-.18a15.4 15.4 0 0 1 -2.57 10.52c-3.21 4.26-4.62 4.48-4.74 4.65s0 1.07 3.09 1.71 4.65.59 4.61 1.26a11.58 11.58 0 0 1 -5.3 7.38c-4.09 2.44-4.34 2.44-4.25 2.77s.14 7 0 7.51-1.53 1.39-3.73 1a22.33 22.33 0 0 1 -5.75-1.91 7.89 7.89 0 0 1 -1.21-1s-3.68 1.94-4.55 2.28a7.38 7.38 0 0 1 -1.61.43s0 2.82-.11 3a.92.92 0 0 1 -.87.21 4.88 4.88 0 0 0 -1.57 0 2.09 2.09 0 0 1 -1 0 9.27 9.27 0 0 0 -1.58 0c-.46 0-1.58 0-1.66-.28s-.23-2.7-.23-2.7a12.66 12.66 0 0 1 -4.54-1.21 8.49 8.49 0 0 1 -2.34-1.86 9.38 9.38 0 0 1 -4.84 2.53c-2.65.31-4.07 0-4-.22s2.11-6.82 1.61-6.78-9.17.41-9.88.41-1.5-.81-1.21-1.44 4-6.76 5.41-8.18 2.19-2.3 2.19-2.3a22.44 22.44 0 0 0 -5.54-1.53c-2.74-.31-4.16-1.22-4-1.55a23.31 23.31 0 0 1 4.36-5.35c1.98-1.63 3.76-2.98 3.76-2.98z" data-color="line"/>

<path d="m5.86 16.34c.3-.3 13.5.06 13.54-.19s-1.88-11.15-1.5-11.15a46 46 0 0 1 9 3.71c2.63 1.68 2.76 2.3 3.47 2.26s4-3.19 8.43-4.88 5.92-1.8 5.92-1.63-1.44 7.31-1.72 8.64-.44 2.74-.15 2.82a28 28 0 0 0 8.26-1c3.93-1.11 6.74-2.66 6.79-2.37a55.16 55.16 0 0 1 -3.63 9.08c-1.19 1.83-1.67 3.41-1.42 3.54s1.66-.31 4.35-1.12 3-.94 3-.81a13.49 13.49 0 0 1 -2.2 7.64 33 33 0 0 1 -5.56 5.85 4.18 4.18 0 0 0 2 2.6c1.17.53 5.7 1.2 5.66 1.45a12.59 12.59 0 0 1 -5.31 6c-3.51 1.81-3.93 2-4 2.32s.18 7.26-.11 7.3a25.34 25.34 0 0 1 -5-.91c-1.41-.49-2-.94-2-1.06a21.37 21.37 0 0 0 2.83-4.51 12 12 0 0 0 .81-3s4.57.22 5-3-1.89-3.81-2.55-3.92a6.49 6.49 0 0 0 -1.33-.16s1.16-10.3-2.33-16-7.21-8.71-14.76-8.4-11.59 4.29-13.44 12-1.36 12.14-1.36 12.14-3.69.15-3.58 4.72 4.93 3.65 4.93 3.65a7 7 0 0 0 1.1 3.91c1.22 1.86 1.77 2.56 1.77 2.56s-4.88 1.86-4.92 1.58 1.25-4.54 1.08-5-1-1.36-1.3-1.36-9.71.41-9.8 0 2.09-3.76 4.27-6.51 3.25-3.81 3.21-4.18-1.51-2.11-4.72-2.58-4.48-.42-4.4-.54a32.65 32.65 0 0 1 5.35-5.44 7.72 7.72 0 0 0 2.52-2.18 35.44 35.44 0 0 1 -4.45-6.21c-1.77-3.33-1.87-5.53-1.75-5.66z" data-color="hair"/>

<path d="m20.53 12a42.8 42.8 0 0 1 -.83-4.52 21.08 21.08 0 0 1 3.67 1.38c0 .17 0 .88-.12.88a16.26 16.26 0 0 0 -2.16-.44c0 .12.34 2 .3 2.07s-.78.74-.86.63z" data-color="line"/>

<path d="m36 9.5a15.63 15.63 0 0 1 3.26-2.14c1.2-.43 1-.63 1.2-.43s.47.87.34 1a19.73 19.73 0 0 0 -3 1.31c-.95.63-1 1-1.23.92s-.45-.49-.57-.66z" data-color="line"/>

<path d="m16.48 41.42a26.38 26.38 0 0 1 .7 4.85c-.12 0-2.36-.27-2.38-1.89a3.74 3.74 0 0 1 1.68-2.96z" data-color="skin" />

<path d="m48.49 41.46c.13-.14 2.37 0 2 1.93s-2.79 2.61-2.84 2.35a24.06 24.06 0 0 1 .65-2.33c.28-1.17-.06-1.7.19-1.95z" data-color="skin" />

<path d="m31.2 17.22c4 0 8.84.22 12.63 6.83s3.37 11.85 2.34 17.76-2.67 9.44-3.69 10.57a11.44 11.44 0 0 1 -1.28 1.3 15.58 15.58 0 0 0 -2.46-1.6c-.21.08-.5.38-.41.54s2 1.52 1.92 1.65-1.16.88-1.28.75a27 27 0 0 0 -2.47-1.89c-.16 0-.66.38-.57.55s2.37 1.64 2.13 1.81-1.57.76-1.74.63-1.93-1.93-2.09-1.93-.62.25-.5.46 1.43 1.77 1.43 1.77a30.9 30.9 0 0 1 -8.14-.1c-3.7-.68-6.31-4.76-7.5-9.11s-1.19-13.61.1-18.73 3.56-11.2 11.58-11.26z" data-color="skin" />

<path d="m30.23 58.37c.12-.12 1.25.08 2.37 0s1.66-.06 1.66.06.14 1.83 0 1.87a2.94 2.94 0 0 1 -1.53.06 2.87 2.87 0 0 0 -1.5-.32c-.41.08-.66.38-.79.21a6.4 6.4 0 0 1 -.21-1.88z" data-color="skin" />

<path d="m22.94 23.31c.33-.12 3-1.73 9.41-1.7s10.06 1.75 10.15 2.25 0 2.45-.35 2.45-2.34-1.39-9.69-1.31-9.46 1.83-9.87 1.55-.85-2.82.35-3.24z" data-color="line"/>

<path d="m23.36 24c.25-.52 3.27-1.69 9.33-1.41s8.9 1.3 8.9 1.64.21.87 0 .87a28.74 28.74 0 0 0 -9.18-1.1 43.37 43.37 0 0 0 -8.87 1.27c-.34-.1-.26-1.14-.18-1.27z" data-color="hair"/>

<path d="m35.14 28c2.79-1.14 8-.31 7.81 5.38s-7.13 6.49-9.48 3.31-1.23-7.52 1.67-8.69z" data-color="line"/>

<path d="m35.58 28.89c2.28-.94 6.54-.26 6.41 4.41s-5.86 5.33-7.79 2.7-1-6.14 1.38-7.11z" data-color="eye"/>

<path d="m23.74 27.85c2.57-1.05 7.35-.29 7.2 4.95s-6.57 6-8.74 3.06-1.13-6.92 1.54-8.01z" data-color="line"/>

<path d="m24.15 28.68c2.1-.86 6-.24 5.9 4.07s-5.39 4.91-7.17 2.51-.88-5.68 1.27-6.58z" data-color="eye"/>

<g data-color="line">

<path d="m25.51 31.85a1.07 1.07 0 1 1 -.32 1.7 1.12 1.12 0 0 1 .32-1.7z" data-color="line"/>

<path d="m37.27 32.29a1.07 1.07 0 1 1 -.33 1.7 1.12 1.12 0 0 1 .33-1.7z" data-color="line"/>

<path d="m21.92 37.74a5.37 5.37 0 0 0 3 1.29 9 9 0 0 0 3.08-.31c.2.05.21.65.2.81a6.57 6.57 0 0 1 -3.76.39 5.1 5.1 0 0 1 -3-1.44c-.09-.17.36-.74.48-.74z" data-color="line"/>

<path d="m36.72 39.58a5.4 5.4 0 0 0 3.27 0 8.55 8.55 0 0 0 2.69-1.47c.21 0 .45.52.5.67a6.54 6.54 0 0 1 -3.32 1.82 5.13 5.13 0 0 1 -3.28-.19c-.17-.08.02-.79.14-.83z" data-color="line"/>

<path d="m29.78 39.79c0-.13.73-.3.78-.1s-.13 6.38 1.57 6.34 1.14-6.36 1.3-6.45a2.14 2.14 0 0 1 .79 0s1 7.59-2 7.55-2.43-7.26-2.44-7.34z" data-color="line"/>

<path d="m22.15 49.3a5.38 5.38 0 0 1 .19-1.74c.25-.55 1-1.17 1.16-1.13s.5.45.37.62-.86.58-.9 1.08 0 1.37-.11 1.42a1.18 1.18 0 0 1 -.71-.25z" data-color="line"/>

<path d="m39.07 46.51s.53-.63.7-.63a2.7 2.7 0 0 1 1.5 1.49c.38 1 .39 1.94.1 2s-.79.13-.79 0 .41-1.24 0-1.91a3.37 3.37 0 0 0 -1.51-.95z" data-color="line"/>

<path d="m24.38 48.58c.21.06 2.22 1.43 6.91 1.27a28 28 0 0 0 7.79-1.55 1.9 1.9 0 0 1 .17.83c0 .16-3.35 1.85-8.12 1.76s-6.94-1.23-7-1.4.13-.95.25-.91z" data-color="line"/>

</g>

</svg>